<svg width="24" height="24" viewBox="0 0 24 24" fill="none" xmlns="http://www.w3.org/2000/svg">
<circle cx="11.9999" cy="12" r="10.5" fill="white" fill-opacity="0.7"/>
<path d="M5.5 10.75C5.5 9.64543 6.39543 8.75 7.5 8.75H7.67963C8.34834 8.75 8.9728 8.4158 9.34373 7.8594L9.78127 7.2031C10.1522 6.6467 10.7767 6.3125 11.4454 6.3125H12.5546C13.2233 6.3125 13.8478 6.6467 14.2187 7.2031L14.6563 7.8594C15.0272 8.4158 15.6517 8.75 16.3204 8.75H16.5C17.6046 8.75 18.5 9.64543 18.5 10.75V15.6875C18.5 16.7921 17.6046 17.6875 16.5 17.6875H7.5C6.39543 17.6875 5.5 16.7921 5.5 15.6875V10.75Z" stroke="#6C757D"/>
<circle cx="12" cy="12.8125" r="2.4375" stroke="#6C757D"/>
</svg>
