<svg width="28" height="28" viewBox="0 0 28 28" fill="none" xmlns="http://www.w3.org/2000/svg">
<path d="M3.6748 4.66669C3.6748 3.47468 4.64112 2.50836 5.83314 2.50836H22.1665C23.3585 2.50836 24.3248 3.47468 24.3248 4.6667V11.859C24.3248 21.1528 16.413 24.6525 14.6905 25.3067C14.2417 25.4772 13.7579 25.4772 13.3092 25.3067C11.5866 24.6525 3.6748 21.1528 3.6748 11.859V4.66669ZM5.83314 4.4917C5.73649 4.4917 5.65814 4.57005 5.65814 4.66669V11.859C5.65814 19.767 12.3491 22.8178 13.9998 23.4475C15.6505 22.8178 22.3415 19.767 22.3415 11.859V4.6667C22.3415 4.57004 22.2631 4.4917 22.1665 4.4917H5.83314Z" fill="#212529"/>
<path d="M18.201 9.79878C18.5883 10.1861 18.5883 10.8139 18.201 11.2012L13.5344 15.8679C13.1471 16.2551 12.5192 16.2551 12.1319 15.8679L9.79859 13.5345C9.41132 13.1473 9.41132 12.5194 9.79859 12.1321C10.1859 11.7448 10.8138 11.7448 11.201 12.1321L12.8331 13.7642L16.7986 9.79878C17.1859 9.41151 17.8138 9.41151 18.201 9.79878Z" fill="#556AEB"/>
</svg>
