<svg width="33" height="43" viewBox="0 0 33 43" fill="none" xmlns="http://www.w3.org/2000/svg">
<path d="M31.459 16.4641C31.459 23.8749 28.1067 30.3491 24.4433 34.9949C22.6147 37.314 20.7226 39.1589 19.164 40.4177C18.3837 41.0478 17.6973 41.5227 17.153 41.8355C16.8805 41.9922 16.6547 42.1018 16.4786 42.1703C16.3042 42.2381 16.2222 42.2482 16.2105 42.2494C16.2101 42.2493 16.2092 42.2491 16.2075 42.2488C16.1919 42.246 16.1156 42.2323 15.961 42.1666C15.7865 42.0924 15.5613 41.9733 15.2882 41.8029C14.743 41.4627 14.0552 40.9487 13.2728 40.2735C11.7102 38.9251 9.81391 36.9713 7.98124 34.5772C4.30447 29.7743 0.958984 23.2995 0.958984 16.4641C0.958984 8.09558 7.81659 0.749512 16.209 0.749512C24.6014 0.749512 31.459 8.09558 31.459 16.4641Z" fill="white" stroke="#CED4DA" stroke-width="1.5"/>
<path d="M24.3617 19.1871C24.7525 19.1871 25.0705 18.8114 25.0705 18.3431V15.5048C25.0705 15.0395 24.7525 14.6608 24.3617 14.6608H20.9535V9.61426H14.812V14.6666H14.0012C13.6104 14.6666 13.2924 15.0452 13.2924 15.5106V18.3489C13.2924 18.8143 13.6104 19.1929 14.0012 19.1929" fill="#556AEB"/>
<path d="M24.3617 19.1871C24.7525 19.1871 25.0705 18.8114 25.0705 18.3431V15.5048C25.0705 15.0395 24.7525 14.6608 24.3617 14.6608H20.9535V9.61426H14.812V14.6666H14.0012C13.6104 14.6666 13.2924 15.0452 13.2924 15.5106V18.3489C13.2924 18.8143 13.6104 19.1929 14.0012 19.1929" stroke="#556AEB" stroke-linejoin="round"/>
<path d="M19.3805 11.0854H16.1132V14.1984H19.3805V11.0854Z" fill="white" stroke="white" stroke-linejoin="round"/>
<path d="M17.5867 11.0581V14.171" stroke="white" stroke-linejoin="round"/>
<path d="M13.7292 19.2827L12.4669 22.6817C12.5786 22.7713 12.7145 22.8234 12.8602 22.8234H14.8191L16.1348 19.2798H13.7292V19.2827Z" fill="#556AEB" stroke="#556AEB" stroke-linecap="round" stroke-linejoin="round"/>
<path d="M16.135 19.2832L14.8193 22.8239H17.2274L18.5407 19.2832H16.135Z" fill="#556AEB" stroke="#556AEB" stroke-linecap="round" stroke-linejoin="round"/>
<path d="M12.8603 19.2842C12.4695 19.2842 12.1515 19.6628 12.1515 20.1282V21.9838C12.1515 22.2757 12.2753 22.5329 12.4646 22.6832L13.7269 19.2842H12.8603Z" fill="#556AEB" stroke="#556AEB" stroke-linecap="round" stroke-linejoin="round"/>
<path d="M18.5406 19.2832L17.2273 22.8239H19.6329L20.9462 19.2832H18.5406Z" fill="#556AEB" stroke="#556AEB" stroke-linecap="round" stroke-linejoin="round"/>
<path d="M25.7381 19.335L24.4442 22.8265H25.5002C25.891 22.8265 26.209 22.4479 26.209 21.9825V20.1269C26.209 19.7598 26.0124 19.4535 25.7381 19.335Z" fill="#556AEB" stroke="#556AEB" stroke-linecap="round" stroke-linejoin="round"/>
<path d="M20.9462 19.2832L19.6329 22.8239H22.0386L23.3518 19.2832H20.9462Z" fill="#556AEB" stroke="#556AEB" stroke-linecap="round" stroke-linejoin="round"/>
<path d="M25.5001 19.2832H23.3518L22.0361 22.8268H24.4418L25.7356 19.3352C25.6604 19.3034 25.5827 19.2832 25.4977 19.2832H25.5001Z" fill="#556AEB" stroke="#556AEB" stroke-linecap="round" stroke-linejoin="round"/>
<path d="M17.1642 23.3512C17.1642 24.516 16.3705 25.4611 15.3922 25.4611C14.4139 25.4611 13.6201 24.516 13.6201 23.3512C13.6201 22.1864 14.4139 21.2412 15.3922 21.2412C16.3705 21.2412 17.1642 22.1864 17.1642 23.3512Z" fill="#556AEB" stroke="#556AEB" stroke-linecap="round" stroke-linejoin="round"/>
<path d="M24.7427 23.3512C24.7427 24.516 23.9489 25.4611 22.9707 25.4611C21.9924 25.4611 21.1986 24.516 21.1986 23.3512C21.1986 22.1864 21.9924 21.2412 22.9707 21.2412C23.9489 21.2412 24.7427 22.1864 24.7427 23.3512Z" fill="#556AEB" stroke="#556AEB" stroke-linecap="round" stroke-linejoin="round"/>
<path d="M11.0251 15.979H6.23328V20.6238H11.0251V15.979Z" fill="#556AEB" stroke="#556AEB"/>
<path d="M8.62927 15.7559V20.8458" stroke="#556AEB"/>
<path d="M6.20898 18.3008H11.0494" stroke="#556AEB"/>
</svg>
