<svg width="32" height="32" viewBox="0 0 32 32" fill="none" xmlns="http://www.w3.org/2000/svg">
<path d="M7.75 14C7.75 9.44365 11.4437 5.75 16 5.75V5.75C20.5563 5.75 24.25 9.44365 24.25 14V19.1972C24.25 19.3946 24.3084 19.5877 24.4179 19.7519L25.9635 22.0703C26.4066 22.7349 25.9302 23.625 25.1315 23.625H6.86852C6.06982 23.625 5.59343 22.7349 6.03647 22.0703L7.58205 19.7519C7.69156 19.5877 7.75 19.3946 7.75 19.1972V14Z" stroke="#212529" stroke-width="1.5"/>
<path d="M11.875 23.625H20.125V23.75C20.125 25.9591 18.3341 27.75 16.125 27.75H15.875C13.6659 27.75 11.875 25.9591 11.875 23.75V23.625Z" stroke="#212529" stroke-width="1.5"/>
<path d="M18.75 6.4375V5.75C18.75 4.23122 17.5188 3 16 3V3C14.4812 3 13.25 4.23122 13.25 5.75V6.4375" stroke="#212529" stroke-width="1.5"/>
</svg>
