<svg width="25" height="25" viewBox="0 0 25 25" fill="none" xmlns="http://www.w3.org/2000/svg">
<circle cx="12.0125" cy="12.553" r="11.75" stroke="#556AEB" stroke-width="0.5"/>
<path d="M8.68058 16.6603H6.01245V9.76C6.01245 8.89253 6.64334 8.44565 7.33994 8.44565C7.85254 8.44565 8.33885 8.69537 8.54914 9.16854C9.0486 8.69537 9.69263 8.44565 10.3892 8.44565C11.191 8.44565 11.9664 8.70852 12.5185 9.36569C13.0574 8.80052 13.8197 8.44565 14.8843 8.44565C16.5535 8.44565 18.0125 9.29997 18.0125 12.047V16.6603H15.3049V11.8892C15.3049 10.9955 14.7397 10.6932 14.306 10.6932C13.8723 10.6932 13.2939 10.9955 13.2939 11.8892V16.6603H10.6915V11.8892C10.6915 10.9955 10.1264 10.6932 9.69263 10.6932C9.27203 10.6932 8.70687 10.9823 8.68058 11.8235V16.6603Z" fill="#556AEB"/>
</svg>
