<svg width="33" height="44" viewBox="0 0 33 44" fill="none" xmlns="http://www.w3.org/2000/svg">
<path d="M31.3795 16.9075C31.3795 24.243 28.0602 30.664 24.4176 35.2835C22.6003 37.5881 20.7214 39.4197 19.1774 40.6665C18.4042 41.2909 17.7288 41.7576 17.199 42.0622C16.9335 42.2148 16.7194 42.3181 16.5586 42.3807C16.4709 42.4147 16.4151 42.4304 16.3864 42.4374C16.3596 42.4298 16.3086 42.4136 16.2293 42.3799C16.0706 42.3124 15.8573 42.2003 15.5911 42.0341C15.06 41.7027 14.3827 41.1973 13.6067 40.5276C12.0575 39.1908 10.1729 37.2496 8.35028 34.8686C4.68978 30.0869 1.37952 23.6652 1.37952 16.9075C1.37952 8.66681 8.13518 1.44287 16.3795 1.44287C24.6239 1.44287 31.3795 8.66681 31.3795 16.9075Z" fill="white" stroke="#556AEB" stroke-width="2"/>
<g clip-path="url(#clip0_15_1653)">
<rect width="14.2261" height="19.809" transform="translate(9.26648 9.56299)" fill="#556AEB"/>
<path d="M9.88501 29.3721V10.1758H22.874V29.3721" stroke="#556AEB" stroke-width="4"/>
<path d="M13.2869 13.2388V16.3019" stroke="white"/>
<path d="M16.3795 13.2388V16.3019" stroke="white"/>
<path d="M19.4722 13.2388V16.3019" stroke="white"/>
<path d="M13.2869 19.5703V22.6334" stroke="white"/>
<path d="M16.3795 19.5703V22.6334" stroke="white"/>
<path d="M19.4722 19.5703V22.6334" stroke="white"/>
<path d="M13.2869 25.8984V28.9615" stroke="white"/>
<path d="M16.3795 25.8984V28.9615" stroke="white"/>
<path d="M19.4722 25.8984V28.9615" stroke="white"/>
</g>
<defs>
<clipPath id="clip0_15_1653">
<rect width="14.2261" height="19.809" fill="white" transform="translate(9.26648 9.56299)"/>
</clipPath>
</defs>
</svg>
