<svg width="33" height="44" viewBox="0 0 33 44" fill="none" xmlns="http://www.w3.org/2000/svg">
<path d="M31.209 17.1755C31.209 24.5111 27.8896 30.932 24.247 35.5515C22.4298 37.8562 20.5508 39.6878 19.0069 40.9346C18.2337 41.559 17.5582 42.0257 17.0284 42.3302C16.7629 42.4829 16.5488 42.5862 16.388 42.6487C16.3004 42.6828 16.2446 42.6984 16.2158 42.7055C16.1891 42.6979 16.138 42.6817 16.0588 42.648C15.9 42.5805 15.6868 42.4683 15.4205 42.3022C14.8894 41.9708 14.2121 41.4654 13.4361 40.7957C11.887 39.4588 10.0024 37.5176 8.17975 35.1367C4.51925 30.355 1.20898 23.9333 1.20898 17.1755C1.20898 8.93488 7.96464 1.71094 16.209 1.71094C24.4533 1.71094 31.209 8.93488 31.209 17.1755Z" fill="white" stroke="#556AEB" stroke-width="2"/>
<path d="M14.1049 11.8936C10.6229 12.8139 8.05679 15.9558 8.05679 19.6928C8.05679 19.8383 8.06747 19.9838 8.07548 20.1266H7.79511C7.213 20.1266 6.74304 20.5947 6.74304 21.1686C6.74304 21.7425 7.21567 22.2106 7.79511 22.2106H24.6229C25.2023 22.2106 25.6749 21.7425 25.6749 21.1686C25.6749 20.5947 25.2023 20.1266 24.6229 20.1266H24.3425C24.3505 19.9838 24.3612 19.8383 24.3612 19.6928C24.3612 15.9558 21.7951 12.8113 18.3131 11.8936" fill="#556AEB"/>
<path d="M14.1049 11.8936C10.6229 12.8139 8.05679 15.9558 8.05679 19.6928C8.05679 19.8383 8.06747 19.9838 8.07548 20.1266H7.79511C7.213 20.1266 6.74304 20.5947 6.74304 21.1686C6.74304 21.7425 7.21567 22.2106 7.79511 22.2106H24.6229C25.2023 22.2106 25.6749 21.7425 25.6749 21.1686C25.6749 20.5947 25.2023 20.1266 24.6229 20.1266H24.3425C24.3505 19.9838 24.3612 19.8383 24.3612 19.6928C24.3612 15.9558 21.7951 12.8113 18.3131 11.8936" stroke="#556AEB" stroke-linecap="round" stroke-linejoin="round"/>
<path d="M18.3132 11.894C17.6429 11.7168 16.938 11.6216 16.2117 11.6216M16.2117 11.6216V15.147M16.2117 11.6216C15.4854 11.6216 14.7778 11.7168 14.1075 11.894" stroke="white" stroke-linecap="round" stroke-linejoin="round"/>
<path d="M17.699 18.4792C17.699 19.2964 17.0314 19.9549 16.209 19.9549C15.3866 19.9549 14.719 19.2937 14.719 18.4792C14.719 17.6646 15.3866 17.0034 16.209 17.0034C17.0314 17.0034 17.699 17.6646 17.699 18.4792Z" fill="white"/>
</svg>
