<svg width="25" height="24" viewBox="0 0 25 24" fill="none" xmlns="http://www.w3.org/2000/svg">
<path d="M3.75 7C3.75 4.79086 5.54086 3 7.75 3H17.75C19.9591 3 21.75 4.79086 21.75 7V17C21.75 19.2091 19.9591 21 17.75 21H7.75C5.54086 21 3.75 19.2091 3.75 17V7Z" stroke="black" stroke-width="1.5"/>
<path d="M9.75 11C10.8546 11 11.75 10.1046 11.75 9C11.75 7.89543 10.8546 7 9.75 7C8.64543 7 7.75 7.89543 7.75 9C7.75 10.1046 8.64543 11 9.75 11Z" stroke="#556AEB" stroke-width="1.5" stroke-linecap="round" stroke-linejoin="round"/>
<path d="M4.75 20L7.62381 16.4077C8.26098 15.6113 9.40134 15.4342 10.25 16C11.0987 16.5658 12.239 16.3887 12.8762 15.5922L14.4754 13.5933C15.1752 12.7185 16.4569 12.5891 17.3175 13.3062L21.75 17" stroke="black" stroke-width="1.5"/>
</svg>
