<svg width="33" height="44" viewBox="0 0 33 44" fill="none" xmlns="http://www.w3.org/2000/svg">
<path d="M31.459 17.1399C31.459 24.5507 28.1067 31.0249 24.4433 35.6707C22.6147 37.9897 20.7226 39.8347 19.164 41.0935C18.3837 41.7236 17.6973 42.1985 17.153 42.5113C16.8805 42.668 16.6547 42.7776 16.4786 42.8461C16.3042 42.9139 16.2222 42.924 16.2105 42.9252C16.2101 42.9251 16.2092 42.9249 16.2075 42.9246C16.1919 42.9218 16.1156 42.9081 15.961 42.8424C15.7865 42.7682 15.5613 42.6491 15.2882 42.4786C14.743 42.1384 14.0552 41.6245 13.2728 40.9493C11.7102 39.6009 9.81391 37.6471 7.98124 35.253C4.30447 30.45 0.958984 23.9753 0.958984 17.1399C0.958984 8.77136 7.81659 1.42529 16.209 1.42529C24.6014 1.42529 31.459 8.77136 31.459 17.1399Z" fill="white" stroke="#CED4DA" stroke-width="1.5"/>
<path d="M11.3447 11.7909C11.3447 13.1969 10.1965 14.3342 8.77683 14.3342C7.35721 14.3342 6.20898 13.1969 6.20898 11.7909C6.20898 10.3848 7.35721 9.24756 8.77683 9.24756C10.1965 9.24756 11.3447 10.3848 11.3447 11.7909Z" fill="#556AEB"/>
<path d="M18.7768 11.7909C18.7768 13.1969 17.6286 14.3342 16.209 14.3342C14.7893 14.3342 13.6411 13.1969 13.6411 11.7909C13.6411 10.3848 14.7893 9.24756 16.209 9.24756C17.6286 9.24756 18.7768 10.3848 18.7768 11.7909Z" fill="#556AEB"/>
<path d="M26.2089 11.7909C26.2089 13.1969 25.0607 14.3342 23.6411 14.3342C22.2215 14.3342 21.0732 13.1969 21.0732 11.7909C21.0732 10.3848 22.2215 9.24756 23.6411 9.24756C25.0607 9.24756 26.2089 10.3848 26.2089 11.7909Z" fill="#556AEB"/>
<path d="M11.3447 18.8832C11.3447 20.2892 10.1965 21.4265 8.77683 21.4265C7.35721 21.4265 6.20898 20.2892 6.20898 18.8832C6.20898 17.4771 7.35721 16.3398 8.77683 16.3398C10.1965 16.3398 11.3447 17.4771 11.3447 18.8832Z" fill="#556AEB"/>
<path d="M18.7768 18.8832C18.7768 20.2892 17.6286 21.4265 16.209 21.4265C14.7893 21.4265 13.6411 20.2892 13.6411 18.8832C13.6411 17.4771 14.7893 16.3398 16.209 16.3398C17.6286 16.3398 18.7768 17.4771 18.7768 18.8832Z" fill="#556AEB"/>
<path d="M26.2089 18.8832C26.2089 20.2892 25.0607 21.4265 23.6411 21.4265C22.2215 21.4265 21.0732 20.2892 21.0732 18.8832C21.0732 17.4771 22.2215 16.3398 23.6411 16.3398C25.0607 16.3398 26.2089 17.4771 26.2089 18.8832Z" fill="#556AEB"/>
<path d="M11.3447 25.9759C11.3447 27.382 10.1965 28.5193 8.77683 28.5193C7.35721 28.5193 6.20898 27.382 6.20898 25.9759C6.20898 24.5699 7.35721 23.4326 8.77683 23.4326C10.1965 23.4326 11.3447 24.5699 11.3447 25.9759Z" fill="#556AEB"/>
<path d="M18.7768 25.9759C18.7768 27.382 17.6286 28.5193 16.209 28.5193C14.7893 28.5193 13.6411 27.382 13.6411 25.9759C13.6411 24.5699 14.7893 23.4326 16.209 23.4326C17.6286 23.4326 18.7768 24.5699 18.7768 25.9759Z" fill="#556AEB"/>
<path d="M26.2089 25.9759C26.2089 27.382 25.0607 28.5193 23.6411 28.5193C22.2215 28.5193 21.0732 27.382 21.0732 25.9759C21.0732 24.5699 22.2215 23.4326 23.6411 23.4326C25.0607 23.4326 26.2089 24.5699 26.2089 25.9759Z" fill="#556AEB"/>
</svg>
