<svg width="33" height="44" viewBox="0 0 33 44" fill="none" xmlns="http://www.w3.org/2000/svg">
<path d="M31.459 17.1804C31.459 24.5913 28.1067 31.0654 24.4433 35.7112C22.6147 38.0303 20.7226 39.8752 19.164 41.134C18.3837 41.7641 17.6973 42.239 17.153 42.5519C16.8805 42.7085 16.6547 42.8181 16.4786 42.8866C16.3042 42.9544 16.2222 42.9645 16.2105 42.9657C16.2101 42.9656 16.2092 42.9654 16.2075 42.9651C16.1919 42.9623 16.1156 42.9487 15.961 42.8829C15.7865 42.8087 15.5613 42.6896 15.2882 42.5192C14.743 42.179 14.0552 41.665 13.2728 40.9899C11.7102 39.6414 9.81391 37.6876 7.98124 35.2936C4.30447 30.4906 0.958984 24.0158 0.958984 17.1804C0.958984 8.81189 7.81659 1.46582 16.209 1.46582C24.6014 1.46582 31.459 8.81189 31.459 17.1804Z" fill="white" stroke="#CED4DA" stroke-width="1.5"/>
<path d="M13.9091 7.82959C10.0467 8.86034 7.20031 12.3791 7.20031 16.5643C7.20031 16.7272 7.21215 16.8901 7.22104 17.05H6.91004C6.26434 17.05 5.74304 17.5743 5.74304 18.217C5.74304 18.8598 6.2673 19.384 6.91004 19.384H25.576C26.2188 19.384 26.743 18.8598 26.743 18.217C26.743 17.5743 26.2188 17.05 25.576 17.05H25.265C25.2739 16.8901 25.2858 16.7272 25.2858 16.5643C25.2858 12.3791 22.4394 8.85738 18.577 7.82959" fill="#556AEB"/>
<path d="M13.9091 7.82959C10.0467 8.86034 7.20031 12.3791 7.20031 16.5643C7.20031 16.7272 7.21215 16.8901 7.22104 17.05H6.91004C6.26434 17.05 5.74304 17.5743 5.74304 18.217C5.74304 18.8598 6.2673 19.384 6.91004 19.384H25.576C26.2188 19.384 26.743 18.8598 26.743 18.217C26.743 17.5743 26.2188 17.05 25.576 17.05H25.265C25.2739 16.8901 25.2858 16.7272 25.2858 16.5643C25.2858 12.3791 22.4394 8.85738 18.577 7.82959" stroke="#556AEB" stroke-linecap="round" stroke-linejoin="round"/>
<path d="M18.5771 7.82949C17.8337 7.63104 17.0517 7.52441 16.2461 7.52441M16.2461 7.52441V11.4727M16.2461 7.52441C15.4405 7.52441 14.6556 7.63104 13.9121 7.82949" stroke="white" stroke-linecap="round" stroke-linejoin="round"/>
<path d="M17.8957 15.205C17.8957 16.1202 17.1552 16.8577 16.243 16.8577C15.3307 16.8577 14.5902 16.1173 14.5902 15.205C14.5902 14.2927 15.3307 13.5522 16.243 13.5522C17.1552 13.5522 17.8957 14.2927 17.8957 15.205Z" fill="white"/>
</svg>
