<svg width="25" height="25" viewBox="0 0 25 25" fill="none" xmlns="http://www.w3.org/2000/svg">
<path d="M21.123 14.4806C21.5138 14.4806 21.8318 14.1013 21.8318 13.6285V10.7628C21.8318 10.293 21.5138 9.91067 21.123 9.91067H17.7148V4.81543H11.5733V9.9165H10.7625C10.3717 9.9165 10.0537 10.2988 10.0537 10.7686V13.6343C10.0537 14.1042 10.3717 14.4865 10.7625 14.4865" fill="#556AEB"/>
<path d="M21.123 14.4806C21.5138 14.4806 21.8318 14.1013 21.8318 13.6285V10.7628C21.8318 10.293 21.5138 9.91067 21.123 9.91067H17.7148V4.81543H11.5733V9.9165H10.7625C10.3717 9.9165 10.0537 10.2988 10.0537 10.7686V13.6343C10.0537 14.1042 10.3717 14.4865 10.7625 14.4865" stroke="#556AEB" stroke-linejoin="round"/>
<path d="M16.1419 6.30078H12.8745V9.44372H16.1419V6.30078Z" fill="white" stroke="white" stroke-linejoin="round"/>
<path d="M14.348 6.27295V9.41589" stroke="white" stroke-linejoin="round"/>
<path d="M10.4906 14.5771L9.22827 18.009C9.33994 18.0994 9.47587 18.152 9.62152 18.152H11.5805L12.8962 14.5742H10.4906V14.5771Z" fill="#556AEB" stroke="#556AEB" stroke-linecap="round" stroke-linejoin="round"/>
<path d="M12.8964 14.5776L11.5807 18.1525H13.9887L15.302 14.5776H12.8964Z" fill="#556AEB" stroke="#556AEB" stroke-linecap="round" stroke-linejoin="round"/>
<path d="M9.62167 14.5786C9.23084 14.5786 8.91284 14.9609 8.91284 15.4307V17.3042C8.91284 17.599 9.03664 17.8587 9.22599 18.0105L10.4883 14.5786H9.62167Z" fill="#556AEB" stroke="#556AEB" stroke-linecap="round" stroke-linejoin="round"/>
<path d="M15.3019 14.5776L13.9886 18.1525H16.3943L17.7075 14.5776H15.3019Z" fill="#556AEB" stroke="#556AEB" stroke-linecap="round" stroke-linejoin="round"/>
<path d="M22.4994 14.6299L21.2056 18.1551H22.2615C22.6523 18.1551 22.9703 17.7728 22.9703 17.303V15.4295C22.9703 15.0589 22.7737 14.7495 22.4994 14.6299Z" fill="#556AEB" stroke="#556AEB" stroke-linecap="round" stroke-linejoin="round"/>
<path d="M17.7076 14.5776L16.3943 18.1525H18.7999L20.1132 14.5776H17.7076Z" fill="#556AEB" stroke="#556AEB" stroke-linecap="round" stroke-linejoin="round"/>
<path d="M22.2615 14.5776H20.1132L18.7975 18.1554H21.2031L22.497 14.6302C22.4217 14.5981 22.344 14.5776 22.2591 14.5776H22.2615Z" fill="#556AEB" stroke="#556AEB" stroke-linecap="round" stroke-linejoin="round"/>
<path d="M13.9256 18.685C13.9256 19.861 13.1318 20.8153 12.1535 20.8153C11.1753 20.8153 10.3815 19.861 10.3815 18.685C10.3815 17.5089 11.1753 16.5547 12.1535 16.5547C13.1318 16.5547 13.9256 17.5089 13.9256 18.685Z" fill="#556AEB" stroke="#556AEB" stroke-linecap="round" stroke-linejoin="round"/>
<path d="M21.5041 18.685C21.5041 19.861 20.7103 20.8153 19.732 20.8153C18.7537 20.8153 17.96 19.861 17.96 18.685C17.96 17.5089 18.7537 16.5547 19.732 16.5547C20.7103 16.5547 21.5041 17.5089 21.5041 18.685Z" fill="#556AEB" stroke="#556AEB" stroke-linecap="round" stroke-linejoin="round"/>
<path d="M7.78647 11.2417H2.99463V15.9313H7.78647V11.2417Z" fill="#556AEB" stroke="#556AEB"/>
<path d="M5.39062 11.0161V16.1551" stroke="#556AEB"/>
<path d="M2.97034 13.5854H7.81073" stroke="#556AEB"/>
</svg>
