<svg width="28" height="28" viewBox="0 0 28 28" fill="none" xmlns="http://www.w3.org/2000/svg">
<path d="M3.67484 13.9999C3.67484 13.4523 4.11882 13.0083 4.6665 13.0083H23.3332C23.8808 13.0083 24.3248 13.4523 24.3248 13.9999C24.3248 14.5476 23.8808 14.9916 23.3332 14.9916H4.6665C4.11882 14.9916 3.67484 14.5476 3.67484 13.9999Z" fill="#556AEB"/>
<path d="M3.6665 5.83329C3.6665 4.63668 4.63655 3.66663 5.83317 3.66663H10.4998C11.0521 3.66663 11.4998 4.11434 11.4998 4.66663C11.4998 5.21891 11.0521 5.66663 10.4998 5.66663H5.83317C5.74112 5.66663 5.6665 5.74125 5.6665 5.83329V10.5C5.6665 11.0522 5.21879 11.5 4.6665 11.5C4.11422 11.5 3.6665 11.0522 3.6665 10.5V5.83329Z" fill="#212529"/>
<path d="M24.3248 5.83327C24.3248 4.64126 23.3585 3.67494 22.1665 3.67494H17.4998C16.9522 3.67494 16.5082 4.11892 16.5082 4.66661C16.5082 5.21429 16.9522 5.65827 17.4998 5.65827H22.1665C22.2632 5.65827 22.3415 5.73662 22.3415 5.83327V10.4999C22.3415 11.0476 22.7855 11.4916 23.3332 11.4916C23.8809 11.4916 24.3248 11.0476 24.3248 10.4999V5.83327Z" fill="#212529"/>
<path d="M4.6665 16.5083C5.21418 16.5083 5.65817 16.9523 5.65817 17.4999V22.1666C5.65817 22.2633 5.73652 22.3416 5.83317 22.3416H10.4998C11.0475 22.3416 11.4915 22.7856 11.4915 23.3333C11.4915 23.881 11.0475 24.3249 10.4998 24.3249H5.83317C4.64116 24.3249 3.67484 23.3586 3.67484 22.1666V17.4999C3.67484 16.9523 4.11882 16.5083 4.6665 16.5083Z" fill="#212529"/>
<path d="M23.3332 16.5083C22.7855 16.5083 22.3415 16.9523 22.3415 17.4999V22.1666C22.3415 22.2633 22.2632 22.3416 22.1665 22.3416H17.4998C16.9522 22.3416 16.5082 22.7856 16.5082 23.3333C16.5082 23.881 16.9522 24.3249 17.4998 24.3249H22.1665C23.3585 24.3249 24.3248 23.3586 24.3248 22.1666V17.4999C24.3248 16.9523 23.8809 16.5083 23.3332 16.5083Z" fill="#212529"/>
</svg>
