<svg width="25" height="25" viewBox="0 0 25 25" fill="none" xmlns="http://www.w3.org/2000/svg">
<path d="M7.24873 5.45847C7.24873 6.8781 6.10051 8.02632 4.68088 8.02632C3.26126 8.02632 2.11304 6.8781 2.11304 5.45847C2.11304 4.03885 3.26126 2.89062 4.68088 2.89062C6.10051 2.89062 7.24873 4.03885 7.24873 5.45847Z" fill="#556AEB"/>
<path d="M14.6809 5.45847C14.6809 6.8781 13.5326 8.02632 12.113 8.02632C10.6934 8.02632 9.54517 6.8781 9.54517 5.45847C9.54517 4.03885 10.6934 2.89062 12.113 2.89062C13.5326 2.89062 14.6809 4.03885 14.6809 5.45847Z" fill="#556AEB"/>
<path d="M22.113 5.45847C22.113 6.8781 20.9648 8.02632 19.5451 8.02632C18.1255 8.02632 16.9773 6.8781 16.9773 5.45847C16.9773 4.03885 18.1255 2.89062 19.5451 2.89062C20.9648 2.89062 22.113 4.03885 22.113 5.45847Z" fill="#556AEB"/>
<path d="M7.24873 12.6191C7.24873 14.0387 6.10051 15.187 4.68088 15.187C3.26126 15.187 2.11304 14.0387 2.11304 12.6191C2.11304 11.1995 3.26126 10.0513 4.68088 10.0513C6.10051 10.0513 7.24873 11.1995 7.24873 12.6191Z" fill="#556AEB"/>
<path d="M14.6809 12.6191C14.6809 14.0387 13.5326 15.187 12.113 15.187C10.6934 15.187 9.54517 14.0387 9.54517 12.6191C9.54517 11.1995 10.6934 10.0513 12.113 10.0513C13.5326 10.0513 14.6809 11.1995 14.6809 12.6191Z" fill="#556AEB"/>
<path d="M22.113 12.6191C22.113 14.0387 20.9648 15.187 19.5451 15.187C18.1255 15.187 16.9773 14.0387 16.9773 12.6191C16.9773 11.1995 18.1255 10.0513 19.5451 10.0513C20.9648 10.0513 22.113 11.1995 22.113 12.6191Z" fill="#556AEB"/>
<path d="M7.24873 19.7803C7.24873 21.1999 6.10051 22.3481 4.68088 22.3481C3.26126 22.3481 2.11304 21.1999 2.11304 19.7803C2.11304 18.3606 3.26126 17.2124 4.68088 17.2124C6.10051 17.2124 7.24873 18.3606 7.24873 19.7803Z" fill="#556AEB"/>
<path d="M14.6809 19.7803C14.6809 21.1999 13.5326 22.3481 12.113 22.3481C10.6934 22.3481 9.54517 21.1999 9.54517 19.7803C9.54517 18.3606 10.6934 17.2124 12.113 17.2124C13.5326 17.2124 14.6809 18.3606 14.6809 19.7803Z" fill="#556AEB"/>
<path d="M22.113 19.7803C22.113 21.1999 20.9648 22.3481 19.5451 22.3481C18.1255 22.3481 16.9773 21.1999 16.9773 19.7803C16.9773 18.3606 18.1255 17.2124 19.5451 17.2124C20.9648 17.2124 22.113 18.3606 22.113 19.7803Z" fill="#556AEB"/>
</svg>
