<svg width="33" height="44" viewBox="0 0 33 44" fill="none" xmlns="http://www.w3.org/2000/svg">
<path d="M31.209 17.1399C31.209 24.4755 27.8896 30.8964 24.247 35.5159C22.4298 37.8205 20.5508 39.6521 19.0069 40.899C18.2337 41.5234 17.5582 41.99 17.0284 42.2946C16.7629 42.4472 16.5488 42.5505 16.388 42.6131C16.3004 42.6472 16.2446 42.6628 16.2158 42.6698C16.1891 42.6622 16.138 42.646 16.0588 42.6123C15.9 42.5448 15.6868 42.4327 15.4205 42.2665C14.8894 41.9351 14.2121 41.4297 13.4361 40.7601C11.887 39.4232 10.0024 37.482 8.17975 35.1011C4.51925 30.3193 1.20898 23.8977 1.20898 17.1399C1.20898 8.89924 7.96464 1.67529 16.209 1.67529C24.4533 1.67529 31.209 8.89924 31.209 17.1399Z" fill="white" stroke="#556AEB" stroke-width="2"/>
<path d="M11.3447 11.7909C11.3447 13.1969 10.1965 14.3342 8.77683 14.3342C7.35721 14.3342 6.20898 13.1969 6.20898 11.7909C6.20898 10.3848 7.35721 9.24756 8.77683 9.24756C10.1965 9.24756 11.3447 10.3848 11.3447 11.7909Z" fill="#556AEB"/>
<path d="M18.7768 11.7909C18.7768 13.1969 17.6286 14.3342 16.209 14.3342C14.7893 14.3342 13.6411 13.1969 13.6411 11.7909C13.6411 10.3848 14.7893 9.24756 16.209 9.24756C17.6286 9.24756 18.7768 10.3848 18.7768 11.7909Z" fill="#556AEB"/>
<path d="M26.2089 11.7909C26.2089 13.1969 25.0607 14.3342 23.6411 14.3342C22.2215 14.3342 21.0732 13.1969 21.0732 11.7909C21.0732 10.3848 22.2215 9.24756 23.6411 9.24756C25.0607 9.24756 26.2089 10.3848 26.2089 11.7909Z" fill="#556AEB"/>
<path d="M11.3447 18.8832C11.3447 20.2892 10.1965 21.4265 8.77683 21.4265C7.35721 21.4265 6.20898 20.2892 6.20898 18.8832C6.20898 17.4771 7.35721 16.3398 8.77683 16.3398C10.1965 16.3398 11.3447 17.4771 11.3447 18.8832Z" fill="#556AEB"/>
<path d="M18.7768 18.8832C18.7768 20.2892 17.6286 21.4265 16.209 21.4265C14.7893 21.4265 13.6411 20.2892 13.6411 18.8832C13.6411 17.4771 14.7893 16.3398 16.209 16.3398C17.6286 16.3398 18.7768 17.4771 18.7768 18.8832Z" fill="#556AEB"/>
<path d="M26.2089 18.8832C26.2089 20.2892 25.0607 21.4265 23.6411 21.4265C22.2215 21.4265 21.0732 20.2892 21.0732 18.8832C21.0732 17.4771 22.2215 16.3398 23.6411 16.3398C25.0607 16.3398 26.2089 17.4771 26.2089 18.8832Z" fill="#556AEB"/>
<path d="M11.3447 25.9759C11.3447 27.382 10.1965 28.5193 8.77683 28.5193C7.35721 28.5193 6.20898 27.382 6.20898 25.9759C6.20898 24.5699 7.35721 23.4326 8.77683 23.4326C10.1965 23.4326 11.3447 24.5699 11.3447 25.9759Z" fill="#556AEB"/>
<path d="M18.7768 25.9759C18.7768 27.382 17.6286 28.5193 16.209 28.5193C14.7893 28.5193 13.6411 27.382 13.6411 25.9759C13.6411 24.5699 14.7893 23.4326 16.209 23.4326C17.6286 23.4326 18.7768 24.5699 18.7768 25.9759Z" fill="#556AEB"/>
<path d="M26.2089 25.9759C26.2089 27.382 25.0607 28.5193 23.6411 28.5193C22.2215 28.5193 21.0732 27.382 21.0732 25.9759C21.0732 24.5699 22.2215 23.4326 23.6411 23.4326C25.0607 23.4326 26.2089 24.5699 26.2089 25.9759Z" fill="#556AEB"/>
</svg>
