<svg width="25" height="24" viewBox="0 0 25 24" fill="none" xmlns="http://www.w3.org/2000/svg">
<path fill-rule="evenodd" clip-rule="evenodd" d="M12.25 3C8.69444 3 6.91667 5.50721 6.91667 8.6V10.3333C6.91667 11.4379 5.92308 12.3503 5.12601 13.115C4.61239 13.6078 4.25 14.3066 4.25 15.1333C4.25 16.1643 5.04594 17 6.02778 17H18.4722C19.4541 17 20.25 16.1643 20.25 15.1333C20.25 14.3066 19.8876 13.6078 19.374 13.115C18.5769 12.3503 17.5833 11.4379 17.5833 10.3333V8.6C17.5833 5.50721 15.8056 3 12.25 3Z" stroke="#212529" stroke-width="1.5"/>
<path d="M14.25 20C14.0468 20.3031 13.755 20.5547 13.404 20.7295C13.053 20.9044 12.6551 20.9965 12.25 20.9965C11.8449 20.9965 11.447 20.9044 11.096 20.7295C10.745 20.5547 10.4532 20.3031 10.25 20" stroke="#556AEB" stroke-width="1.5" stroke-linecap="round" stroke-linejoin="round"/>
</svg>
