<svg width="32" height="32" viewBox="0 0 32 32" fill="none" xmlns="http://www.w3.org/2000/svg">
<path d="M16 20C18.2091 20 20 18.2091 20 16C20 13.7909 18.2091 12 16 12C13.7909 12 12 13.7909 12 16C12 18.2091 13.7909 20 16 20Z" stroke="#212529" stroke-width="1.5" stroke-linecap="round" stroke-linejoin="round"/>
<path fill-rule="evenodd" clip-rule="evenodd" d="M19.0272 6.05472C19.0272 4.91993 18.1073 4 16.9725 4H15.0276C13.8928 4 12.9729 4.91993 12.9729 6.05472C12.9729 6.92767 12.4091 7.68549 11.6419 8.10211C11.522 8.16725 11.4037 8.23499 11.2871 8.30527C10.5339 8.75931 9.59004 8.86832 8.8267 8.43155C7.83059 7.86161 6.56125 8.20172 5.98355 9.19335L5.04433 10.8055C4.4689 11.7933 4.80849 13.0607 5.80067 13.6284C6.56073 14.0632 6.9391 14.9322 6.92058 15.8077C6.91923 15.8716 6.91855 15.9357 6.91855 16C6.91855 16.0643 6.91923 16.1284 6.92058 16.1923C6.9391 17.0678 6.56074 17.9368 5.8007 18.3717C4.80853 18.9393 4.46895 20.2067 5.04436 21.1944L5.98362 22.8067C6.56131 23.7983 7.83064 24.1384 8.82674 23.5685C9.59007 23.1317 10.534 23.2407 11.2871 23.6947C11.4037 23.765 11.522 23.8328 11.6419 23.8979C12.4091 24.3145 12.9729 25.0723 12.9729 25.9453C12.9729 27.0801 13.8928 28 15.0276 28H16.9725C18.1073 28 19.0272 27.0801 19.0272 25.9453C19.0272 25.0723 19.591 24.3145 20.3581 23.8979C20.4781 23.8328 20.5963 23.765 20.7129 23.6947C21.4661 23.2407 22.41 23.1317 23.1733 23.5685C24.1694 24.1384 25.4387 23.7983 26.0164 22.8067L26.9557 21.1944C27.5311 20.2067 27.1915 18.9394 26.1994 18.3717C25.4393 17.9368 25.061 17.0678 25.0795 16.1924C25.0808 16.1284 25.0815 16.0643 25.0815 16C25.0815 15.9357 25.0808 15.8716 25.0795 15.8077C25.061 14.9322 25.4393 14.0632 26.1994 13.6283C27.1916 13.0606 27.5312 11.7932 26.9557 10.8055L26.0165 9.19334C25.4388 8.20171 24.1695 7.8616 23.1734 8.43154C22.41 8.86831 21.4661 8.7593 20.7129 8.30526C20.5964 8.23499 20.4781 8.16724 20.3581 8.10211C19.591 7.68549 19.0272 6.92767 19.0272 6.05472Z" stroke="#212529" stroke-width="1.5"/>
</svg>
