<svg width="33" height="44" viewBox="0 0 33 44" fill="none" xmlns="http://www.w3.org/2000/svg">
<path d="M31.209 17.1145C31.209 24.4501 27.8896 30.871 24.247 35.4905C22.4298 37.7951 20.5508 39.6267 19.0069 40.8736C18.2337 41.498 17.5582 41.9646 17.0284 42.2692C16.7629 42.4218 16.5488 42.5252 16.388 42.5877C16.3004 42.6218 16.2446 42.6374 16.2158 42.6445C16.1891 42.6369 16.138 42.6206 16.0588 42.5869C15.9 42.5194 15.6868 42.4073 15.4205 42.2412C14.8894 41.9098 14.2121 41.4043 13.4361 40.7347C11.887 39.3978 10.0024 37.4566 8.17975 35.0757C4.51925 30.2939 1.20898 23.8723 1.20898 17.1145C1.20898 8.87385 7.96464 1.6499 16.209 1.6499C24.4533 1.6499 31.209 8.87385 31.209 17.1145Z" fill="white" stroke="#556AEB" stroke-width="2"/>
<path d="M12.087 20.1987H6.20898V24.6261H12.087V20.1987Z" fill="#556AEB" stroke="#556AEB" stroke-linecap="round" stroke-linejoin="round"/>
<path d="M19.1467 20.1987H13.2687V24.6261H19.1467V20.1987Z" fill="#556AEB" stroke="#556AEB" stroke-linecap="round" stroke-linejoin="round"/>
<path d="M26.209 20.1987H20.3311V24.6261H26.209V20.1987Z" fill="#556AEB" stroke="#556AEB" stroke-linecap="round" stroke-linejoin="round"/>
<path d="M15.6168 13.9951H9.73877V18.4225H15.6168V13.9951Z" fill="#556AEB" stroke="#556AEB" stroke-linecap="round" stroke-linejoin="round"/>
<path d="M22.6766 13.9951H16.7986V18.4225H22.6766V13.9951Z" fill="#556AEB" stroke="#556AEB" stroke-linecap="round" stroke-linejoin="round"/>
<path d="M19.1467 7.78857H13.2687V12.2159H19.1467V7.78857Z" fill="#556AEB" stroke="#556AEB" stroke-linecap="round" stroke-linejoin="round"/>
</svg>
