<svg width="33" height="44" viewBox="0 0 33 44" fill="none" xmlns="http://www.w3.org/2000/svg">
<path d="M31.6295 16.9075C31.6295 24.3183 28.2772 30.7925 24.6139 35.4383C22.7852 37.7573 20.8932 39.6023 19.3345 40.861C18.5542 41.4911 17.8678 41.966 17.3236 42.2789C17.051 42.4356 16.8252 42.5452 16.6492 42.6137C16.4748 42.6815 16.3927 42.6916 16.381 42.6927C16.3807 42.6926 16.3797 42.6925 16.3781 42.6922C16.3624 42.6894 16.2861 42.6757 16.1315 42.61C15.957 42.5358 15.7319 42.4167 15.4587 42.2462C14.9135 41.906 14.2257 41.3921 13.4433 40.7169C11.8807 39.3684 9.98444 37.4146 8.15177 35.0206C4.475 30.2176 1.12952 23.7429 1.12952 16.9075C1.12952 8.53894 7.98712 1.19287 16.3795 1.19287C24.7719 1.19287 31.6295 8.53894 31.6295 16.9075Z" fill="white" stroke="#CED4DA" stroke-width="1.5"/>
<g clip-path="url(#clip0_15_1653)">
<rect width="14.2261" height="19.809" transform="translate(9.26648 9.56299)" fill="#556AEB"/>
<path d="M9.88501 29.3721V10.1758H22.874V29.3721" stroke="#556AEB" stroke-width="4"/>
<path d="M13.2869 13.2388V16.3019" stroke="white"/>
<path d="M16.3795 13.2388V16.3019" stroke="white"/>
<path d="M19.4722 13.2388V16.3019" stroke="white"/>
<path d="M13.2869 19.5703V22.6334" stroke="white"/>
<path d="M16.3795 19.5703V22.6334" stroke="white"/>
<path d="M19.4722 19.5703V22.6334" stroke="white"/>
<path d="M13.2869 25.8984V28.9615" stroke="white"/>
<path d="M16.3795 25.8984V28.9615" stroke="white"/>
<path d="M19.4722 25.8984V28.9615" stroke="white"/>
</g>
<defs>
<clipPath id="clip0_15_1653">
<rect width="14.2261" height="19.809" fill="white" transform="translate(9.26648 9.56299)"/>
</clipPath>
</defs>
</svg>
