<svg width="33" height="43" viewBox="0 0 33 43" fill="none" xmlns="http://www.w3.org/2000/svg">
<path d="M31.209 16.4641C31.209 23.7997 27.8896 30.2206 24.247 34.8401C22.4298 37.1447 20.5508 38.9763 19.0069 40.2232C18.2337 40.8476 17.5582 41.3142 17.0284 41.6188C16.7629 41.7714 16.5488 41.8748 16.388 41.9373C16.3004 41.9714 16.2446 41.987 16.2158 41.9941C16.1891 41.9865 16.138 41.9702 16.0588 41.9365C15.9 41.8691 15.6868 41.7569 15.4205 41.5908C14.8894 41.2594 14.2121 40.754 13.4361 40.0843C11.887 38.7474 10.0024 36.8062 8.17975 34.4253C4.51925 29.6435 1.20898 23.2219 1.20898 16.4641C1.20898 8.22346 7.96464 0.999512 16.209 0.999512C24.4533 0.999512 31.209 8.22346 31.209 16.4641Z" fill="white" stroke="#556AEB" stroke-width="2"/>
<path d="M24.3617 19.1871C24.7525 19.1871 25.0705 18.8114 25.0705 18.3431V15.5048C25.0705 15.0395 24.7525 14.6608 24.3617 14.6608H20.9535V9.61426H14.812V14.6666H14.0012C13.6104 14.6666 13.2924 15.0452 13.2924 15.5106V18.3489C13.2924 18.8143 13.6104 19.1929 14.0012 19.1929" fill="#556AEB"/>
<path d="M24.3617 19.1871C24.7525 19.1871 25.0705 18.8114 25.0705 18.3431V15.5048C25.0705 15.0395 24.7525 14.6608 24.3617 14.6608H20.9535V9.61426H14.812V14.6666H14.0012C13.6104 14.6666 13.2924 15.0452 13.2924 15.5106V18.3489C13.2924 18.8143 13.6104 19.1929 14.0012 19.1929" stroke="#556AEB" stroke-linejoin="round"/>
<path d="M19.3805 11.0854H16.1132V14.1984H19.3805V11.0854Z" fill="white" stroke="white" stroke-linejoin="round"/>
<path d="M17.5867 11.0581V14.171" stroke="white" stroke-linejoin="round"/>
<path d="M13.7292 19.2827L12.4669 22.6817C12.5786 22.7713 12.7145 22.8234 12.8602 22.8234H14.8191L16.1348 19.2798H13.7292V19.2827Z" fill="#556AEB" stroke="#556AEB" stroke-linecap="round" stroke-linejoin="round"/>
<path d="M16.135 19.2832L14.8193 22.8239H17.2274L18.5407 19.2832H16.135Z" fill="#556AEB" stroke="#556AEB" stroke-linecap="round" stroke-linejoin="round"/>
<path d="M12.8603 19.2842C12.4695 19.2842 12.1515 19.6628 12.1515 20.1282V21.9838C12.1515 22.2757 12.2753 22.5329 12.4646 22.6832L13.7269 19.2842H12.8603Z" fill="#556AEB" stroke="#556AEB" stroke-linecap="round" stroke-linejoin="round"/>
<path d="M18.5406 19.2832L17.2273 22.8239H19.6329L20.9462 19.2832H18.5406Z" fill="#556AEB" stroke="#556AEB" stroke-linecap="round" stroke-linejoin="round"/>
<path d="M25.7381 19.335L24.4442 22.8265H25.5002C25.891 22.8265 26.209 22.4479 26.209 21.9825V20.1269C26.209 19.7598 26.0124 19.4535 25.7381 19.335Z" fill="#556AEB" stroke="#556AEB" stroke-linecap="round" stroke-linejoin="round"/>
<path d="M20.9462 19.2832L19.6329 22.8239H22.0386L23.3518 19.2832H20.9462Z" fill="#556AEB" stroke="#556AEB" stroke-linecap="round" stroke-linejoin="round"/>
<path d="M25.5001 19.2832H23.3518L22.0361 22.8268H24.4418L25.7356 19.3352C25.6604 19.3034 25.5827 19.2832 25.4977 19.2832H25.5001Z" fill="#556AEB" stroke="#556AEB" stroke-linecap="round" stroke-linejoin="round"/>
<path d="M17.1642 23.3512C17.1642 24.516 16.3705 25.4611 15.3922 25.4611C14.4139 25.4611 13.6201 24.516 13.6201 23.3512C13.6201 22.1864 14.4139 21.2412 15.3922 21.2412C16.3705 21.2412 17.1642 22.1864 17.1642 23.3512Z" fill="#556AEB" stroke="#556AEB" stroke-linecap="round" stroke-linejoin="round"/>
<path d="M24.7427 23.3512C24.7427 24.516 23.9489 25.4611 22.9707 25.4611C21.9924 25.4611 21.1986 24.516 21.1986 23.3512C21.1986 22.1864 21.9924 21.2412 22.9707 21.2412C23.9489 21.2412 24.7427 22.1864 24.7427 23.3512Z" fill="#556AEB" stroke="#556AEB" stroke-linecap="round" stroke-linejoin="round"/>
<path d="M11.0251 15.979H6.23328V20.6238H11.0251V15.979Z" fill="#556AEB" stroke="#556AEB"/>
<path d="M8.62927 15.7559V20.8458" stroke="#556AEB"/>
<path d="M6.20898 18.3008H11.0494" stroke="#556AEB"/>
</svg>
