<svg width="24" height="24" viewBox="0 0 24 24" fill="none" xmlns="http://www.w3.org/2000/svg">
<path d="M11.072 4.31085C11.4079 3.47438 12.5921 3.47438 12.928 4.31085L14.3523 7.85774C14.4953 8.21394 14.8297 8.45683 15.2126 8.4828L19.0261 8.74137C19.9254 8.80235 20.2913 9.92853 19.5996 10.5065L16.6664 12.9571C16.3719 13.2033 16.2442 13.5963 16.3378 13.9685L17.2703 17.6752C17.4902 18.5494 16.5322 19.2454 15.7688 18.7661L12.5317 16.7338C12.2066 16.5297 11.7934 16.5297 11.4683 16.7338L8.23117 18.7661C7.46776 19.2454 6.50977 18.5494 6.72969 17.6752L7.66218 13.9685C7.75583 13.5963 7.62814 13.2033 7.33357 12.9571L4.40042 10.5065C3.70869 9.92853 4.07461 8.80235 4.97394 8.74137L8.78737 8.4828C9.17035 8.45683 9.50466 8.21394 9.6477 7.85774L11.072 4.31085Z" stroke="#212529" stroke-width="1.5" stroke-linecap="round" stroke-linejoin="round"/>
</svg>
