<svg width="33" height="44" viewBox="0 0 33 44" fill="none" xmlns="http://www.w3.org/2000/svg">
<path d="M31.459 17.1145C31.459 24.5253 28.1067 30.9995 24.4433 35.6453C22.6147 37.9643 20.7226 39.8093 19.164 41.0681C18.3837 41.6982 17.6973 42.1731 17.153 42.4859C16.8805 42.6426 16.6547 42.7522 16.4786 42.8207C16.3042 42.8885 16.2222 42.8986 16.2105 42.8998C16.2101 42.8997 16.2092 42.8995 16.2075 42.8992C16.1919 42.8964 16.1156 42.8827 15.961 42.817C15.7865 42.7428 15.5613 42.6237 15.2882 42.4533C14.743 42.113 14.0552 41.5991 13.2728 40.9239C11.7102 39.5755 9.81391 37.6217 7.98124 35.2276C4.30447 30.4246 0.958984 23.9499 0.958984 17.1145C0.958984 8.74597 7.81659 1.3999 16.209 1.3999C24.6014 1.3999 31.459 8.74597 31.459 17.1145Z" fill="white" stroke="#CED4DA" stroke-width="1.5"/>
<path d="M12.087 20.1987H6.20898V24.6261H12.087V20.1987Z" fill="#556AEB" stroke="#556AEB" stroke-linecap="round" stroke-linejoin="round"/>
<path d="M19.1467 20.1987H13.2687V24.6261H19.1467V20.1987Z" fill="#556AEB" stroke="#556AEB" stroke-linecap="round" stroke-linejoin="round"/>
<path d="M26.209 20.1987H20.3311V24.6261H26.209V20.1987Z" fill="#556AEB" stroke="#556AEB" stroke-linecap="round" stroke-linejoin="round"/>
<path d="M15.6168 13.9951H9.73877V18.4225H15.6168V13.9951Z" fill="#556AEB" stroke="#556AEB" stroke-linecap="round" stroke-linejoin="round"/>
<path d="M22.6766 13.9951H16.7986V18.4225H22.6766V13.9951Z" fill="#556AEB" stroke="#556AEB" stroke-linecap="round" stroke-linejoin="round"/>
<path d="M19.1467 7.78857H13.2687V12.2159H19.1467V7.78857Z" fill="#556AEB" stroke="#556AEB" stroke-linecap="round" stroke-linejoin="round"/>
</svg>
