<svg width="33" height="33" viewBox="0 0 33 33" fill="none" xmlns="http://www.w3.org/2000/svg">
<circle cx="16.209" cy="16.7109" r="15" fill="white" stroke="#556AEB" stroke-width="2"/>
<path d="M14.1049 7.64941C10.6229 8.56978 8.05679 11.7117 8.05679 15.4487C8.05679 15.5942 8.06747 15.7396 8.07548 15.8824H7.79511C7.213 15.8824 6.74304 16.3505 6.74304 16.9245C6.74304 17.4984 7.21567 17.9665 7.79511 17.9665H24.6229C25.2023 17.9665 25.6749 17.4984 25.6749 16.9245C25.6749 16.3505 25.2023 15.8824 24.6229 15.8824H24.3425C24.3505 15.7396 24.3612 15.5942 24.3612 15.4487C24.3612 11.7117 21.7951 8.56713 18.3131 7.64941" fill="#556AEB"/>
<path d="M14.1049 7.64941C10.6229 8.56978 8.05679 11.7117 8.05679 15.4487C8.05679 15.5942 8.06747 15.7396 8.07548 15.8824H7.79511C7.213 15.8824 6.74304 16.3505 6.74304 16.9245C6.74304 17.4984 7.21567 17.9665 7.79511 17.9665H24.6229C25.2023 17.9665 25.6749 17.4984 25.6749 16.9245C25.6749 16.3505 25.2023 15.8824 24.6229 15.8824H24.3425C24.3505 15.7396 24.3612 15.5942 24.3612 15.4487C24.3612 11.7117 21.7951 8.56713 18.3131 7.64941" stroke="#556AEB" stroke-linecap="round" stroke-linejoin="round"/>
<path d="M18.3132 7.64985C17.6429 7.47265 16.938 7.37744 16.2117 7.37744M16.2117 7.37744V10.9029M16.2117 7.37744C15.4854 7.37744 14.7778 7.47265 14.1075 7.64985" stroke="white" stroke-linecap="round" stroke-linejoin="round"/>
<path d="M17.699 14.235C17.699 15.0523 17.0314 15.7108 16.209 15.7108C15.3866 15.7108 14.719 15.0496 14.719 14.235C14.719 13.4205 15.3866 12.7593 16.209 12.7593C17.0314 12.7593 17.699 13.4205 17.699 14.235Z" fill="white"/>
</svg>
