<svg width="28" height="28" viewBox="0 0 28 28" fill="none" xmlns="http://www.w3.org/2000/svg">
<path fill-rule="evenodd" clip-rule="evenodd" d="M15.4001 5.83334C15.4001 4.67354 16.3403 3.73334 17.5001 3.73334H22.1667C23.3265 3.73334 24.2667 4.67354 24.2667 5.83334V10.5C24.2667 11.6598 23.3265 12.6 22.1667 12.6H17.5001C16.3403 12.6 15.4001 11.6598 15.4001 10.5V5.83334ZM17.5001 5.6C17.3712 5.6 17.2667 5.70447 17.2667 5.83334V10.5C17.2667 10.6289 17.3712 10.7333 17.5001 10.7333H22.1667C22.2956 10.7333 22.4001 10.6289 22.4001 10.5V5.83334C22.4001 5.70447 22.2956 5.6 22.1667 5.6H17.5001Z" fill="white"/>
<path fill-rule="evenodd" clip-rule="evenodd" d="M5.8334 15.4C4.6736 15.4 3.7334 16.3402 3.7334 17.5V22.1667C3.7334 23.3265 4.6736 24.2667 5.8334 24.2667H10.5001C11.6599 24.2667 12.6001 23.3265 12.6001 22.1667V17.5C12.6001 16.3402 11.6599 15.4 10.5001 15.4H5.8334ZM5.60007 17.5C5.60007 17.3711 5.70453 17.2667 5.8334 17.2667H10.5001C10.6289 17.2667 10.7334 17.3711 10.7334 17.5V22.1667C10.7334 22.2955 10.6289 22.4 10.5001 22.4H5.8334C5.70453 22.4 5.60007 22.2955 5.60007 22.1667V17.5Z" fill="white"/>
<path d="M23.3334 15.4C23.8489 15.4 24.2667 15.8179 24.2667 16.3333V19.8333C24.2667 20.3488 23.8489 20.7667 23.3334 20.7667H19.8334C19.3179 20.7667 18.9001 20.3488 18.9001 19.8333C18.9001 19.3179 19.3179 18.9 19.8334 18.9H22.4001V17.2667H22.1667C21.6513 17.2667 21.2334 16.8488 21.2334 16.3333C21.2334 15.8179 21.6513 15.4 22.1667 15.4H23.3334Z" fill="white"/>
<path d="M15.4001 23.3333V19.8333C15.4001 19.3179 15.8179 18.9 16.3334 18.9C16.8489 18.9 17.2667 19.3179 17.2667 19.8333V22.4H18.6667C19.1822 22.4 19.6001 22.8179 19.6001 23.3333C19.6001 23.8488 19.1822 24.2667 18.6667 24.2667H16.3334C15.8179 24.2667 15.4001 23.8488 15.4001 23.3333Z" fill="white"/>
<path d="M22.1667 22.4C21.6513 22.4 21.2334 22.8179 21.2334 23.3333C21.2334 23.8488 21.6513 24.2667 22.1667 24.2667H23.3334C23.8489 24.2667 24.2667 23.8488 24.2667 23.3333C24.2667 22.8179 23.8489 22.4 23.3334 22.4H22.1667Z" fill="white"/>
<path d="M15.4001 16.3333C15.4001 15.8179 15.8179 15.4 16.3334 15.4H18.6667C19.1822 15.4 19.6001 15.8179 19.6001 16.3333C19.6001 16.8488 19.1822 17.2667 18.6667 17.2667H16.3334C15.8179 17.2667 15.4001 16.8488 15.4001 16.3333Z" fill="white"/>
<path fill-rule="evenodd" clip-rule="evenodd" d="M5.8334 3.73334C4.6736 3.73334 3.7334 4.67354 3.7334 5.83334V10.5C3.7334 11.6598 4.6736 12.6 5.8334 12.6H10.5001C11.6599 12.6 12.6001 11.6598 12.6001 10.5V5.83334C12.6001 4.67354 11.6599 3.73334 10.5001 3.73334H5.8334ZM5.60007 5.83334C5.60007 5.70447 5.70453 5.6 5.8334 5.6H10.5001C10.6289 5.6 10.7334 5.70447 10.7334 5.83334V10.5C10.7334 10.6289 10.6289 10.7333 10.5001 10.7333H5.8334C5.70453 10.7333 5.60007 10.6289 5.60007 10.5V5.83334Z" fill="white"/>
</svg>
