<svg width="39" height="39" viewBox="0 0 39 39" fill="none" xmlns="http://www.w3.org/2000/svg">
<circle cx="19.209" cy="19.7109" r="18.25" fill="white" stroke="#CED4DA" stroke-width="1.5"/>
<path d="M16.0238 7.15479C11.2624 8.41331 7.75349 12.7097 7.75349 17.8197C7.75349 18.0186 7.76809 18.2175 7.77905 18.4128H7.39566C6.59967 18.4128 5.95703 19.0529 5.95703 19.8377C5.95703 20.6225 6.60332 21.2626 7.39566 21.2626H30.4064C31.1987 21.2626 31.845 20.6225 31.845 19.8377C31.845 19.0529 31.1987 18.4128 30.4064 18.4128H30.023C30.0339 18.2175 30.0485 18.0186 30.0485 17.8197C30.0485 12.7097 26.5396 8.4097 21.7783 7.15479" fill="#556AEB"/>
<path d="M16.0238 7.15479C11.2624 8.41331 7.75349 12.7097 7.75349 17.8197C7.75349 18.0186 7.76809 18.2175 7.77905 18.4128H7.39566C6.59967 18.4128 5.95703 19.0529 5.95703 19.8377C5.95703 20.6225 6.60332 21.2626 7.39566 21.2626H30.4064C31.1987 21.2626 31.845 20.6225 31.845 19.8377C31.845 19.0529 31.1987 18.4128 30.4064 18.4128H30.023C30.0339 18.2175 30.0485 18.0186 30.0485 17.8197C30.0485 12.7097 26.5396 8.4097 21.7783 7.15479" stroke="#556AEB" stroke-linecap="round" stroke-linejoin="round"/>
<path d="M21.7784 7.15619C20.862 6.91388 19.898 6.78369 18.9048 6.78369M18.9048 6.78369V11.6044M18.9048 6.78369C17.9117 6.78369 16.9441 6.91388 16.0276 7.15619" stroke="white" stroke-linecap="round" stroke-linejoin="round"/>
<path d="M20.9383 16.161C20.9383 17.2785 20.0255 18.179 18.9008 18.179C17.7762 18.179 16.8634 17.2749 16.8634 16.161C16.8634 15.0472 17.7762 14.1431 18.9008 14.1431C20.0255 14.1431 20.9383 15.0472 20.9383 16.161Z" fill="white"/>
</svg>
