<svg width="25" height="24" viewBox="0 0 25 24" fill="none" xmlns="http://www.w3.org/2000/svg">
<path d="M11.75 5H11.5897C10.422 5 9.31264 5.51025 8.55271 6.39683L8.4298 6.54024C7.98956 7.05385 7.38866 7.40359 6.72463 7.53271L6.17739 7.63912C4.76772 7.91322 3.75 9.14789 3.75 10.584V13.416C3.75 14.8521 4.76772 16.0868 6.17739 16.3609L6.72463 16.4673C7.38866 16.5964 7.98956 16.9462 8.4298 17.4598L8.55271 17.6032C9.31264 18.4897 10.422 19 11.5897 19H11.75C12.8546 19 13.75 18.1046 13.75 17V7C13.75 5.89543 12.8546 5 11.75 5Z" stroke="#212529" stroke-width="1.5"/>
<path d="M18.6489 14.8284C19.1454 13.9685 19.4068 12.993 19.4068 12C19.4068 11.007 19.1454 10.0315 18.6489 9.17157" stroke="#556AEB" stroke-width="1.5" stroke-linecap="round"/>
</svg>
