<svg width="25" height="25" viewBox="0 0 25 25" fill="none" xmlns="http://www.w3.org/2000/svg">
<path d="M10.4003 7.34766C6.91829 8.2769 4.3522 11.4491 4.3522 15.2222C4.3522 15.369 4.36288 15.5159 4.3709 15.6601H4.09052C3.50841 15.6601 3.03845 16.1327 3.03845 16.7121C3.03845 17.2916 3.51108 17.7642 4.09052 17.7642H20.9183C21.4977 17.7642 21.9704 17.2916 21.9704 16.7121C21.9704 16.1327 21.4977 15.6601 20.9183 15.6601H20.6379C20.6459 15.5159 20.6566 15.369 20.6566 15.2222C20.6566 11.4491 18.0905 8.27422 14.6085 7.34766" fill="#556AEB"/>
<path d="M10.4003 7.34766C6.91829 8.2769 4.3522 11.4491 4.3522 15.2222C4.3522 15.369 4.36288 15.5159 4.3709 15.6601H4.09052C3.50841 15.6601 3.03845 16.1327 3.03845 16.7121C3.03845 17.2916 3.51108 17.7642 4.09052 17.7642H20.9183C21.4977 17.7642 21.9704 17.2916 21.9704 16.7121C21.9704 16.1327 21.4977 15.6601 20.9183 15.6601H20.6379C20.6459 15.5159 20.6566 15.369 20.6566 15.2222C20.6566 11.4491 18.0905 8.27422 14.6085 7.34766" stroke="#556AEB" stroke-linecap="round" stroke-linejoin="round"/>
<path d="M14.6086 7.34779C13.9383 7.16888 13.2334 7.07275 12.5071 7.07275M12.5071 7.07275V10.6322M12.5071 7.07275C11.7808 7.07275 11.0732 7.16888 10.403 7.34779" stroke="white" stroke-linecap="round" stroke-linejoin="round"/>
<path d="M13.9944 13.9968C13.9944 14.8219 13.3268 15.4868 12.5044 15.4868C11.682 15.4868 11.0144 14.8193 11.0144 13.9968C11.0144 13.1744 11.682 12.5068 12.5044 12.5068C13.3268 12.5068 13.9944 13.1744 13.9944 13.9968Z" fill="white"/>
</svg>
