<svg width="24" height="24" viewBox="0 0 24 24" fill="none" xmlns="http://www.w3.org/2000/svg">
<path d="M8 17C8 16.4478 8.44772 16 9 16H15C15.5523 16 16 16.4478 16 17V18C16 20.2092 14.2091 22 12 22C9.79086 22 8 20.2092 8 18V17ZM10 18C10 19.1046 10.8954 20 12 20C13.1046 20 14 19.1046 14 18H10Z" fill="#212529"/>
<path d="M12 4C8.68628 4.00001 6 6.6863 6 10V13.7224C6 14.1654 5.82404 14.5902 5.51082 14.9034L5 15.4142L5 16H19V15.4142L18.4892 14.9034C18.176 14.5901 18 14.1653 18 13.7224V10C18 6.68629 15.3137 3.99999 12 4ZM4 10C4 5.58173 7.58171 2.00001 12 2C16.4183 1.99999 20 5.58172 20 10V13.5858L20.4142 14C20.7893 14.3751 21 14.8838 21 15.4142V16C21 17.1046 20.1046 18 19 18H5C3.89543 18 3 17.1046 3 16V15.4142C3 14.8838 3.21071 14.3751 3.58579 14L4 13.5858V10Z" fill="#212529"/>
<path d="M23 5C23 7.20914 21.2091 9 19 9C16.7909 9 15 7.20914 15 5C15 2.79086 16.7909 1 19 1C21.2091 1 23 2.79086 23 5Z" fill="#E50D19"/>
</svg>
